<svg
  className="text-blue-600 w-[600px] max-h-[150px]"
  viewBox="0.001 9.774 23.999 4.153"
  xmlns="http://www.w3.org/2000/svg"
>
    <path fill="#004B9B" d="M14.028 12.814h1.328v.001c.56 0 .728-.057.73-.573h1.244v.389c0 .697-.247 1.247-1.496 1.247h-2.006c-1.12 0-1.787-.286-1.787-1.498v-1.107c0-1.213.667-1.499 1.787-1.499h1.462c1.771 0 2 .39 1.99 1.562h-1.246v-.115c0-.298-.213-.383-.583-.383h-1.356c-.657 0-.78.314-.78.829v.317c0 .601.124.83.713.83Zm-10.05-.375H2.434v-.857h2.79v1.05c0 1.19-.604 1.247-2.006 1.247H1.722c-1.121 0-1.721-.286-1.721-1.499v-1.107c0-1.213.601-1.498 1.721-1.498h1.87c1.413 0 1.61.521 1.61 1.327v.131H3.978c0-.412-.229-.463-.626-.463h-1.35c-.628 0-.79.154-.79.863v.386c0 .71.162.864.79.864H3.33c.322 0 .644-.052.649-.444Zm5.824-.137H6.775v.665h3.267v.892H5.59V9.82h4.38v.961H6.775v.664h3.027v.857Zm.616-2.482h1.245v4.033h-1.245V9.82Zm10.91-.046H19.43c-1.12 0-1.788.286-1.788 1.499v1.107c0 1.211.668 1.497 1.788 1.497h1.898c1.121 0 1.787-.286 1.787-1.498v-1.106c0-1.213-.665-1.499-1.787-1.499Zm-.128 3.04c.589 0 .713-.23.713-.83h-.001v-.317c0-.514-.124-.83-.778-.83h-1.435c-.657 0-.779.315-.779.83v.317c0 .601.124.83.711.83h1.57Zm2.605.594c0-.038-.016-.08-.05-.098a.192.192 0 0 0-.109-.023h-.194v.457h.053v-.212h.101l.128.213h.066l-.136-.213c.08 0 .141-.034.141-.124Zm-.3.082h.102c.062.001.144.002.143-.082 0-.07-.06-.08-.117-.08h-.128v.162Zm.095-.384a.406.406 0 0 0-.403.409c0 .227.18.412.403.412.221 0 .4-.184.4-.412a.405.405 0 0 0-.4-.409Zm-.352.409c0 .2.157.361.352.361.194 0 .351-.16.351-.361a.355.355 0 0 0-.35-.36.356.356 0 0 0-.353.36Z" clip-rule="evenodd" fill-rule="evenodd" data-color="1"></path>
</svg>
