<svg preserveAspectRatio="xMidYMid meet" data-bbox="11.922 22.162 2180.068 302.551" xmlns="http://www.w3.org/2000/svg" viewBox="11.922 22.162 2180.068 302.551" height="339" width="2194" data-type="color" role="presentation" aria-hidden="true" aria-label="">
    <g>
        <mask height="321" width="2193" y="9" x="0" maskUnits="userSpaceOnUse" style="mask-type:luminance" id="fc27bb0d-cff6-45d4-93db-19f5f5ae3aff_comp-m3gbqa3q" fill="none">
            <path fill="#ffffff" d="M2192.26 9.97H0v319.06h2192.26z"></path>
        </mask>
        <g mask="url(#fc27bb0d-cff6-45d4-93db-19f5f5ae3aff_comp-m3gbqa3q)">
            <path fill="#EC0C21" d="M1287.6 112.33c-11.24-7.768-27.61-11.375-43.57-11.375-36.21 0-62.16 17.895-79.23 43.142-16.92 25.248-24.97 57.708-24.97 86.7 0 20.949 3.05 40.369 15.95 57.987 6.25 8.601 21.51 29.27 70.63 29.27 34.27 0 50.37-8.878 59.11-14.011l1.38-1.942c1.67-7.492 7.5-41.478 9.86-50.078l-1.81-1.388c-17.2 13.733-36.07 23.722-57.44 23.722-14.29 0-25.25-3.468-32.61-9.989-7.35-6.518-10.96-16.23-10.96-28.161 0-4.439.28-8.461.69-12.762l.14-1.109h.98c33.43-.833 50.5-1.248 78.53-1.248 9.16 0 19.42 0 31.91.138l2.08-1.526c2.78-13.039 5.83-27.883 5.83-46.055.28-16.23-1.39-44.946-26.5-61.315m-22.2 71.025-.14.971-65.21.833.27-1.11.14-.416c.7-2.358 1.25-4.717 2.08-7.352 2.22-7.075 5.42-14.843 11.1-22.057.98-1.248 1.95-2.497 3.2-3.607 9.99-10.959 19.56-12.624 25.67-12.624 8.74 0 15.12 3.469 19.14 8.601.7.833 1.25 1.804 1.81 2.775 1.94 3.468 3.19 7.352 3.74 11.375.28 1.526.28 3.052.28 4.578.14 6.103-.97 12.068-2.08 18.033m-127.24-36.899-2.22 2.219-32.32-.832-14.99 70.332c-2.08 8.877-6.66 30.795-6.66 38.009 0 6.659 2.5 11.098 5.97 13.872 3.46 2.775 7.76 3.607 11.65 3.607 9.02 0 12.21-2.497 18.18-4.856l.97.971-7.91 40.507-2.77 2.636c-11.1 2.359-19.29 4.301-30.95 4.301-29.97-.139-51.61-10.265-51.75-45.224 0-16.368 6.66-46.194 11.52-68.388l11.93-55.906-25.39.971-1.53-2.219 7.35-39.397 2.36-1.249h25.81l10.27-51.881 2.08-2.22c25.81-6.659 33.16-9.85 56.75-17.479l1.25 1.387-7.77 33.432-8.05 37.594 33.02-.972.84 1.665zm398.22-66.448-1.81 1.942-85.19-.139-13.87 71.026 74.51-2.22 1.11 1.804c-6.11 20.53-7.5 26.218-11.66 44.113l-1.94 1.803-70.9-.138-9.3 49.385-11.79 64.089-1.53 1.525-61.05 1.526-.69-1.526 10.54-54.517 16.1-76.99c12.21-59.789 15.81-78.933 27.33-144.132l1.8-1.803h89.22l56.61-1.387 1.11 1.387zm120.3 34.68c-11.8-8.323-30.81-12.623-56.75-12.623-12.77 0-25.81 1.248-38.71 3.745-11.52 2.22-18.74 4.023-24.98 5.826l-1.67 1.665-8.32 43.004 2.78 1.664c5.41-2.496 13.32-5.548 23.86-9.294 10.68-3.745 20.53-5.687 29.42-5.687 13.04 0 22.89 1.803 29.69 5.41 6.94 3.745 11.93 11.93 11.93 20.947 0 2.219-.14 4.161-.41 5.965-.28 1.664-.56 2.913-.7 3.606l-.14.971s-4.16.278-8.6.694c-2.91.277-6.8.694-11.1 1.248-7.21.833-15.4 1.804-22.48 2.914-17.2 2.913-65.35 10.265-79.78 42.587-15.12 26.495-12.49 61.454 2.36 78.656 5.27 5.964 13.18 11.651 24 13.871.42.139 2.08.416 2.5.416 41.76 6.382 71.6-29.826 71.6-29.826l-4.45 22.474 1.81 1.526 46.9-1.526 1.94-1.665 27.61-138.443c.56-2.914 1.11-6.382 1.39-10.266.28-4.023.55-7.213.55-9.572-.41-17.756-8.32-29.963-20.25-38.287m-48.15 138.306s-11.24 17.618-27.33 23.859c-16.24 6.242-27.89 1.249-32.47-4.993-3.61-4.855-11.38-20.392 3.19-37.732 14.71-17.479 63.55-18.59 63.55-18.59zM1835.8 99.152l-11.37 59.511-2.5 2.497c-3.33-.555-7.49-1.11-12.35-1.11-15.4 0-37.46 4.994-54.67 27.744l-.14.139-23.72 123.463-1.67 1.525-51.34 1.526-1.38-1.386 40.37-207.39 2.22-2.219 50.92-4.994 2.08 2.22-5.82 29.963 2.5-2.219c10.54-9.572 20.11-16.369 30.66-22.334 10.41-5.965 20.95-9.017 31.36-9.017.97 0 2.08 0 3.19.139zm275.29 52.159c0 12.485-2.77 25.525-5.55 38.148l-23.87 121.937-1.8 1.525-53.83 1.803-1.4-1.803s27.61-134.698 27.61-141.357c0-6.104-3.19-22.473-20.39-22.473-13.46 0-27.48 13.595-27.48 13.595l-28.99 148.847-1.81 1.528-23.17.831-20.67.694-10.27.415-.69-.832-.7-.971s4.17-20.531 9.3-45.916h-.14c8.05-39.675 18.31-91.418 18.31-95.579 0-6.104-3.18-22.473-20.39-22.473-13.46 0-27.33 13.595-27.33 13.595l-29.14 148.848-1.81 1.525-54.11 1.803-1.11-1.803 40.38-207.11 2.08-2.081 53.7-5.133 2.22 2.22-5.69 29.131s25.8-28.299 58.97-28.992c30.8-.555 37.31 28.992 37.31 28.992s30.68-29.686 63.43-28.992c16.35 0 47.03 7.213 47.03 50.078M987.064 114.688c-11.794-8.323-30.804-12.623-56.749-12.623q-19.148 0-38.712 3.745c-11.654 2.22-18.87 4.023-24.976 5.826l-1.665 1.665-8.463 43.142 2.774 1.665c5.412-2.497 13.322-5.549 23.727-9.294 10.685-3.746 20.536-5.688 29.416-5.688 13.042 0 22.894 1.804 29.693 5.41 6.937 3.746 11.931 11.93 11.794 20.947 0 2.22-.14 4.162-.555 5.965-.279 1.665-.556 2.913-.556 3.607l-.138.971s-4.163.277-8.742.694c-2.914.277-6.66.693-11.1 1.248-7.214.833-15.262 1.804-22.478 2.913-17.205 2.914-65.351 10.266-79.782 42.588-15.123 26.496-12.625 61.453 2.359 78.654 5.272 5.967 13.32 11.654 24.142 13.873.557.138 2.22.417 2.498.417 41.765 6.379 71.596-29.826 71.596-29.826l-4.44 22.474 1.803 1.525 46.898-1.525 1.942-1.665 27.47-138.445c.56-2.913 1.11-6.381 1.39-10.265.28-4.023.56-7.213.56-9.572.14-17.895-7.773-30.102-19.706-38.426m-48.146 138.306s-11.24 17.618-27.336 23.859c-16.233 6.242-27.75 1.249-32.467-4.993-3.606-4.855-11.377-20.392 3.191-37.732 14.708-17.479 63.549-18.59 63.549-18.59zM825.974 146.456l-2.219 2.219-32.19-.832-14.987 70.332c-2.081 8.877-6.66 30.795-6.66 38.009 0 6.659 2.499 11.098 5.967 13.872 3.469 2.775 7.769 3.607 11.655 3.607 9.019 0 12.071-2.497 18.176-4.856l1.111.971-7.91 40.507-2.775 2.636c-11.1 2.359-19.285 4.301-30.941 4.301-29.97-.139-51.755-10.265-51.892-45.224 0-16.368 6.659-46.194 11.516-68.388l11.931-55.906-25.39.971-1.526-2.219 7.354-39.397 2.358-1.249h25.669l10.406-51.881 1.943-2.22c25.807-6.659 33.301-9.85 56.748-17.479l1.249 1.387-7.769 33.432-8.048 37.594 33.022-.972.834 1.665zm-121.13-95.58-9.851 50.495-2.081.694c-3.885-5.55-6.245-7.63-11.656-11.791-12.071-9.295-26.362-14.566-40.932-14.566-11.514 0-20.95 3.607-27.61 9.572s-10.406 14.426-10.406 23.86c0 17.756 12.209 26.495 33.854 39.535l8.464 4.717c18.177 11.93 46.344 30.241 46.344 71.581-.14 47.025-30.248 94.329-102.677 94.469-17.76 0-35.105-3.191-51.893-9.434-11.239-4.3-16.788-8.047-23.587-13.04l-.555-3.19 9.574-49.247 2.22-.694c4.3 5.55 9.851 10.266 18.037 15.676 17.482 11.653 34.132 12.902 41.349 12.902 25.53 0 45.649-14.565 45.649-37.316 0-20.255-16.096-30.381-32.884-40.368l-11.517-7.075c-18.176-11.93-43.568-28.161-43.568-68.806 0-15.675 4.439-38.01 18.315-56.46 18.316-24.137 47.038-32.876 75.897-32.876 37.186 0 58.554 13.178 68.542 19.56zM212.139 242.035c0 13.734-9.157 26.358-24.42 35.651-15.262 9.295-36.352 14.982-59.801 14.982s-44.262-5.825-59.386-14.982c-15.123-9.293-24.004-21.917-24.004-35.651 0-13.733 9.02-26.218 24.143-35.373 15.124-9.156 36.075-14.844 59.524-14.844s44.539 5.688 59.663 14.844c15.124 9.017 24.281 21.502 24.281 35.373m-54.529-137.75c0-13.733 9.019-26.218 24.143-35.374 15.124-9.155 36.075-14.843 59.525-14.843 23.31 0 44.538 5.688 59.662 14.843 15.263 9.156 24.282 21.64 24.282 35.374s-9.157 26.357-24.421 35.652c-15.263 9.294-36.353 14.982-59.663 14.982-23.448 0-44.4-5.688-59.385-14.982-15.124-9.295-24.143-21.918-24.143-35.652m280.415 137.75c0 13.734-9.157 26.358-24.419 35.651-15.262 9.295-36.352 14.982-59.802 14.982-23.448 0-44.401-5.825-59.386-14.982-14.985-9.293-24.002-21.917-24.002-35.651 0-13.733 9.017-26.218 24.142-35.373 14.985-9.156 36.075-14.844 59.385-14.844 23.448 0 44.539 5.688 59.663 14.844 15.262 9.017 24.419 21.502 24.419 35.373m-84.082-82.261c-10.407 0-20.535.971-30.109 2.774 20.952-14.982 33.855-35.512 33.855-58.263 0-45.778-52.032-82.123-116.551-82.123s-115.995 36.345-115.995 82.123c0 22.751 12.626 43.42 33.439 58.402-9.713-1.803-19.98-2.913-30.664-2.913-64.52 0-115.996 36.345-115.996 82.124 0 45.639 51.199 82.815 115.718 82.815 54.946 0 101.01-26.912 113.498-62.98 12.21 36.207 57.443 62.98 112.389 62.98 64.519 0 116.828-37.038 116.828-82.815.14-45.779-51.892-82.124-116.412-82.124m-206.739-55.627c0-20.115 15.401-33.848 24.559-40.368 18.176-12.901 42.873-19.837 69.515-19.837 26.778 0 51.477 7.074 69.791 19.837 9.157 6.52 24.698 20.253 24.698 40.229-.14 33.432-43.846 60.76-94.906 60.76-26.502 0-51.06-7.075-69.237-20.115-15.679-11.098-24.42-25.524-24.42-40.506m-19.425 198.509c-26.501 0-51.06-7.075-69.237-20.114-15.679-11.237-24.42-25.802-24.42-40.644 0-20.115 15.401-33.849 24.559-40.369 18.176-12.901 42.874-19.837 69.514-19.837s51.477 7.075 69.792 19.976c9.158 6.519 24.697 20.253 24.837 40.23-.277 33.431-43.985 60.758-95.045 60.758m83.666-118.329c9.436 1.804 19.287 2.636 29.555 2.636 10.406 0 20.534-.971 30.108-2.774-14.291 10.265-24.697 23.304-29.693 38.009-5.132-14.565-15.677-27.605-29.97-37.871m142.221 118.329c-26.641 0-51.2-7.075-69.236-20.114-15.68-11.237-24.559-25.802-24.559-40.644 0-20.115 15.539-33.849 24.559-40.23 18.176-12.901 42.872-19.838 69.513-19.838 26.779 0 51.478 7.075 69.792 19.976 9.157 6.381 24.698 20.254 24.698 40.229-.14 33.294-43.706 60.621-94.767 60.621" data-color="1"></path>
            <path fill="#EC0C21" d="M2191.99 132.167c0 17.756-12.77 31.212-29.56 31.212-16.8 0-29.56-13.456-29.56-31.212 0-18.034 12.62-31.212 29.84-31.212 16.51 0 29.28 13.456 29.28 31.212m-55.37-.139c0 15.121 11.51 27.467 25.67 27.467 14.14 0 25.67-12.346 25.67-27.605 0-7.214-2.78-14.566-7.36-19.421-4.45-4.717-11.51-7.769-18.03-7.769-14.86 0-25.95 11.653-25.95 27.328m24.27-17.617c3.75 0 5.57.139 7.64.832 3.75 1.249 6.1 4.717 6.1 8.74 0 4.3-2.63 7.629-6.94 8.878l7.22 16.785h-5l-6.65-15.953-.41-.139h-6.39l-.56.139v15.953h-4.58v-35.374h9.57zm-.28 15.814c4.31 0 5.97-.277 7.36-1.387 1.4-.971 2.22-2.775 2.22-4.717 0-2.635-1.1-4.439-3.34-5.271-1.23-.555-3.19-.694-7.06-.694h-3.75v11.93h4.57z" data-color="1"></path>
        </g>
    </g>
</svg>
